<?xml version="1.0" encoding="utf-8" standalone="no"?><!DOCTYPE svg PUBLIC "-//W3C//DTD SVG 20010904//EN" "http://www.w3.org/TR/2001/REC-SVG-20010904/DTD/svg10.dtd"><svg xmlns="http://www.w3.org/2000/svg" width="706" height="906" xmlns:xlink="http://www.w3.org/1999/xlink"><source><![CDATA[User->Controller:HttpRequest
Note right of User: GET
Note right of User: POST
Note right of User: Ajax
Controller->Action:URL
Action->Service:QueryString
Service->DAO:Business logic
DAO->DB:JDBC
DB-->DAO:DATA
DAO-->Service:DTO/List
Service-->Action:Result URL
Note right of Action: *.jsp
Note right of Action: *.exception
Action-->Controller:Result URL
Note right of Controller: *.jsp
Note right of Controller: *.exception
Controller-->User:View
Note right of User: DTO / List
Note right of User: ERROR Message]]></source><desc></desc><defs><marker viewBox="0 0 5 5" markerWidth="5" markerHeight="5" orient="auto" refX="5" refY="2.5" id="markerArrowBlock"><path d="M 0 0 L 5 2.5 L 0 5 z"></path></marker><marker viewBox="0 0 9.6 16" markerWidth="4" markerHeight="16" orient="auto" refX="9.6" refY="8" id="markerArrowOpen"><path d="M 9.6,8 1.92,16 0,13.7 5.76,8 0,2.286 1.92,0 9.6,8 z"></path></marker></defs><g class="title"></g><g class="actor"><rect x="10" y="20" width="52" height="36" stroke="#000000" fill="#ffffff" style="stroke-width: 2;"></rect><text x="20" y="44" style="font-size: 16px; font-family: &quot;Andale Mono&quot;, monospace;"><tspan x="20">User</tspan></text></g><g class="actor"><rect x="10" y="850" width="52" height="36" stroke="#000000" fill="#ffffff" style="stroke-width: 2;"></rect><text x="20" y="874" style="font-size: 16px; font-family: &quot;Andale Mono&quot;, monospace;"><tspan x="20">User</tspan></text></g><line x1="36" x2="36" y1="56" y2="850" stroke="#000000" fill="none" style="stroke-width: 2;"></line><g class="actor"><rect x="140" y="20" width="100" height="36" stroke="#000000" fill="#ffffff" style="stroke-width: 2;"></rect><text x="150" y="44" style="font-size: 16px; font-family: &quot;Andale Mono&quot;, monospace;"><tspan x="150">Controller</tspan></text></g><g class="actor"><rect x="140" y="850" width="100" height="36" stroke="#000000" fill="#ffffff" style="stroke-width: 2;"></rect><text x="150" y="874" style="font-size: 16px; font-family: &quot;Andale Mono&quot;, monospace;"><tspan x="150">Controller</tspan></text></g><line x1="190" x2="190" y1="56" y2="850" stroke="#000000" fill="none" style="stroke-width: 2;"></line><g class="actor"><rect x="294" y="20" width="68" height="36" stroke="#000000" fill="#ffffff" style="stroke-width: 2;"></rect><text x="304" y="44" style="font-size: 16px; font-family: &quot;Andale Mono&quot;, monospace;"><tspan x="304">Action</tspan></text></g><g class="actor"><rect x="294" y="850" width="68" height="36" stroke="#000000" fill="#ffffff" style="stroke-width: 2;"></rect><text x="304" y="874" style="font-size: 16px; font-family: &quot;Andale Mono&quot;, monospace;"><tspan x="304">Action</tspan></text></g><line x1="328" x2="328" y1="56" y2="850" stroke="#000000" fill="none" style="stroke-width: 2;"></line><g class="actor"><rect x="428" y="20" width="76" height="36" stroke="#000000" fill="#ffffff" style="stroke-width: 2;"></rect><text x="438" y="44" style="font-size: 16px; font-family: &quot;Andale Mono&quot;, monospace;"><tspan x="438">Service</tspan></text></g><g class="actor"><rect x="428" y="850" width="76" height="36" stroke="#000000" fill="#ffffff" style="stroke-width: 2;"></rect><text x="438" y="874" style="font-size: 16px; font-family: &quot;Andale Mono&quot;, monospace;"><tspan x="438">Service</tspan></text></g><line x1="466" x2="466" y1="56" y2="850" stroke="#000000" fill="none" style="stroke-width: 2;"></line><g class="actor"><rect x="576" y="20" width="44" height="36" stroke="#000000" fill="#ffffff" style="stroke-width: 2;"></rect><text x="586" y="44" style="font-size: 16px; font-family: &quot;Andale Mono&quot;, monospace;"><tspan x="586">DAO</tspan></text></g><g class="actor"><rect x="576" y="850" width="44" height="36" stroke="#000000" fill="#ffffff" style="stroke-width: 2;"></rect><text x="586" y="874" style="font-size: 16px; font-family: &quot;Andale Mono&quot;, monospace;"><tspan x="586">DAO</tspan></text></g><line x1="598" x2="598" y1="56" y2="850" stroke="#000000" fill="none" style="stroke-width: 2;"></line><g class="actor"><rect x="640" y="20" width="36" height="36" stroke="#000000" fill="#ffffff" style="stroke-width: 2;"></rect><text x="650" y="44" style="font-size: 16px; font-family: &quot;Andale Mono&quot;, monospace;"><tspan x="650">DB</tspan></text></g><g class="actor"><rect x="640" y="850" width="36" height="36" stroke="#000000" fill="#ffffff" style="stroke-width: 2;"></rect><text x="650" y="874" style="font-size: 16px; font-family: &quot;Andale Mono&quot;, monospace;"><tspan x="650">DB</tspan></text></g><line x1="658" x2="658" y1="56" y2="850" stroke="#000000" fill="none" style="stroke-width: 2;"></line><g class="signal"><text x="69" y="87" style="font-size: 16px; font-family: &quot;Andale Mono&quot;, monospace;"><tspan x="69">HttpRequest</tspan></text><line x1="36" x2="190" y1="92" y2="92" stroke="#000000" fill="none" style="stroke-width: 2; marker-end: url(&quot;#markerArrowBlock&quot;);"></line></g><g class="note"><rect x="56" y="112" width="34" height="26" stroke="#000000" fill="#ffffff" style="stroke-width: 2;"></rect><text x="61" y="131" style="font-size: 16px; font-family: &quot;Andale Mono&quot;, monospace;"><tspan x="61">GET</tspan></text></g><g class="note"><rect x="56" y="158" width="42" height="26" stroke="#000000" fill="#ffffff" style="stroke-width: 2;"></rect><text x="61" y="177" style="font-size: 16px; font-family: &quot;Andale Mono&quot;, monospace;"><tspan x="61">POST</tspan></text></g><g class="note"><rect x="56" y="204" width="42" height="26" stroke="#000000" fill="#ffffff" style="stroke-width: 2;"></rect><text x="61" y="223" style="font-size: 16px; font-family: &quot;Andale Mono&quot;, monospace;"><tspan x="61">Ajax</tspan></text></g><g class="signal"><text x="247" y="261" style="font-size: 16px; font-family: &quot;Andale Mono&quot;, monospace;"><tspan x="247">URL</tspan></text><line x1="190" x2="328" y1="266" y2="266" stroke="#000000" fill="none" style="stroke-width: 2; marker-end: url(&quot;#markerArrowBlock&quot;);"></line></g><g class="signal"><text x="353" y="297" style="font-size: 16px; font-family: &quot;Andale Mono&quot;, monospace;"><tspan x="353">QueryString</tspan></text><line x1="328" x2="466" y1="302" y2="302" stroke="#000000" fill="none" style="stroke-width: 2; marker-end: url(&quot;#markerArrowBlock&quot;);"></line></g><g class="signal"><text x="476" y="333" style="font-size: 16px; font-family: &quot;Andale Mono&quot;, monospace;"><tspan x="476">Business logic</tspan></text><line x1="466" x2="598" y1="338" y2="338" stroke="#000000" fill="none" style="stroke-width: 2; marker-end: url(&quot;#markerArrowBlock&quot;);"></line></g><g class="signal"><text x="612" y="369" style="font-size: 16px; font-family: &quot;Andale Mono&quot;, monospace;"><tspan x="612">JDBC</tspan></text><line x1="598" x2="658" y1="374" y2="374" stroke="#000000" fill="none" style="stroke-width: 2; marker-end: url(&quot;#markerArrowBlock&quot;);"></line></g><g class="signal"><text x="612" y="405" style="font-size: 16px; font-family: &quot;Andale Mono&quot;, monospace;"><tspan x="612">DATA</tspan></text><line x1="658" x2="598" y1="410" y2="410" stroke="#000000" fill="none" style="stroke-width: 2; stroke-dasharray: 6, 2; marker-end: url(&quot;#markerArrowBlock&quot;);"></line></g><g class="signal"><text x="500" y="441" style="font-size: 16px; font-family: &quot;Andale Mono&quot;, monospace;"><tspan x="500">DTO/List</tspan></text><line x1="598" x2="466" y1="446" y2="446" stroke="#000000" fill="none" style="stroke-width: 2; stroke-dasharray: 6, 2; marker-end: url(&quot;#markerArrowBlock&quot;);"></line></g><g class="signal"><text x="357" y="477" style="font-size: 16px; font-family: &quot;Andale Mono&quot;, monospace;"><tspan x="357">Result URL</tspan></text><line x1="466" x2="328" y1="482" y2="482" stroke="#000000" fill="none" style="stroke-width: 2; stroke-dasharray: 6, 2; marker-end: url(&quot;#markerArrowBlock&quot;);"></line></g><g class="note"><rect x="348" y="502" width="50" height="26" stroke="#000000" fill="#ffffff" style="stroke-width: 2;"></rect><text x="353" y="521" style="font-size: 16px; font-family: &quot;Andale Mono&quot;, monospace;"><tspan x="353">*.jsp</tspan></text></g><g class="note"><rect x="348" y="548" width="98" height="26" stroke="#000000" fill="#ffffff" style="stroke-width: 2;"></rect><text x="353" y="567" style="font-size: 16px; font-family: &quot;Andale Mono&quot;, monospace;"><tspan x="353">*.exception</tspan></text></g><g class="signal"><text x="219" y="605" style="font-size: 16px; font-family: &quot;Andale Mono&quot;, monospace;"><tspan x="219">Result URL</tspan></text><line x1="328" x2="190" y1="610" y2="610" stroke="#000000" fill="none" style="stroke-width: 2; stroke-dasharray: 6, 2; marker-end: url(&quot;#markerArrowBlock&quot;);"></line></g><g class="note"><rect x="210" y="630" width="50" height="26" stroke="#000000" fill="#ffffff" style="stroke-width: 2;"></rect><text x="215" y="649" style="font-size: 16px; font-family: &quot;Andale Mono&quot;, monospace;"><tspan x="215">*.jsp</tspan></text></g><g class="note"><rect x="210" y="676" width="98" height="26" stroke="#000000" fill="#ffffff" style="stroke-width: 2;"></rect><text x="215" y="695" style="font-size: 16px; font-family: &quot;Andale Mono&quot;, monospace;"><tspan x="215">*.exception</tspan></text></g><g class="signal"><text x="97" y="733" style="font-size: 16px; font-family: &quot;Andale Mono&quot;, monospace;"><tspan x="97">View</tspan></text><line x1="190" x2="36" y1="738" y2="738" stroke="#000000" fill="none" style="stroke-width: 2; stroke-dasharray: 6, 2; marker-end: url(&quot;#markerArrowBlock&quot;);"></line></g><g class="note"><rect x="56" y="758" width="90" height="26" stroke="#000000" fill="#ffffff" style="stroke-width: 2;"></rect><text x="61" y="777" style="font-size: 16px; font-family: &quot;Andale Mono&quot;, monospace;"><tspan x="61">DTO / List</tspan></text></g><g class="note"><rect x="56" y="804" width="114" height="26" stroke="#000000" fill="#ffffff" style="stroke-width: 2;"></rect><text x="61" y="823" style="font-size: 16px; font-family: &quot;Andale Mono&quot;, monospace;"><tspan x="61">ERROR Message</tspan></text></g></svg>